<svg xmlns="http://www.w3.org/2000/svg" width="1440" height="960" viewBox="0 0 1440 960" role="img" aria-labelledby="title desc">
  <title id="title">Fromliten Command Center redesign concept</title>
  <desc id="desc">Dark operational dashboard concept for Fromliten with dense project panels, AI status, vault controls, and restrained cyan accents.</desc>
  <defs>
    <linearGradient id="bg" x1="0" x2="1" y1="0" y2="1">
      <stop offset="0" stop-color="#07090d"/>
      <stop offset="0.55" stop-color="#111827"/>
      <stop offset="1" stop-color="#0f172a"/>
    </linearGradient>
    <linearGradient id="accent" x1="0" x2="1">
      <stop offset="0" stop-color="#22d3ee"/>
      <stop offset="1" stop-color="#34d399"/>
    </linearGradient>
    <filter id="soft">
      <feDropShadow dx="0" dy="24" stdDeviation="24" flood-color="#000" flood-opacity=".35"/>
    </filter>
  </defs>
  <rect width="1440" height="960" fill="url(#bg)"/>
  <path d="M0 820 C220 720 360 880 560 790 C780 690 900 760 1060 680 C1240 590 1340 620 1440 560 L1440 960 L0 960Z" fill="#0b1220" opacity=".85"/>
  <g opacity=".18" stroke="#22d3ee">
    <path d="M120 180 H1320"/>
    <path d="M120 300 H1320"/>
    <path d="M120 420 H1320"/>
    <path d="M120 540 H1320"/>
    <path d="M120 660 H1320"/>
    <path d="M240 100 V780"/>
    <path d="M480 100 V780"/>
    <path d="M720 100 V780"/>
    <path d="M960 100 V780"/>
    <path d="M1200 100 V780"/>
  </g>
  <rect x="80" y="64" width="1280" height="92" rx="18" fill="#0b1220" stroke="#1f2937"/>
  <text x="120" y="122" fill="#f8fafc" font-family="Arial, sans-serif" font-size="34" font-weight="800">FROMLITEN</text>
  <text x="338" y="122" fill="#94a3b8" font-family="Arial, sans-serif" font-size="18">Command Center</text>
  <g fill="#94a3b8" font-family="Arial, sans-serif" font-size="16">
    <text x="810" y="120">Models</text>
    <text x="900" y="120">Vault</text>
    <text x="980" y="120">Projects</text>
    <text x="1080" y="120">Admin</text>
  </g>
  <rect x="1180" y="91" width="128" height="38" rx="19" fill="url(#accent)"/>
  <text x="1210" y="116" fill="#061018" font-family="Arial, sans-serif" font-size="15" font-weight="700">Launch AI</text>

  <g filter="url(#soft)">
    <rect x="88" y="200" width="520" height="320" rx="22" fill="#0b1220" stroke="#263241"/>
    <text x="124" y="252" fill="#f8fafc" font-family="Arial, sans-serif" font-size="40" font-weight="800">Rashid AI OS</text>
    <text x="124" y="292" fill="#94a3b8" font-family="Arial, sans-serif" font-size="18">A focused home for models, tools, games, and secure admin workflows.</text>
    <rect x="124" y="340" width="188" height="52" rx="12" fill="url(#accent)"/>
    <text x="156" y="373" fill="#061018" font-family="Arial, sans-serif" font-size="17" font-weight="800">Open Console</text>
    <rect x="330" y="340" width="158" height="52" rx="12" fill="#111827" stroke="#334155"/>
    <text x="364" y="373" fill="#e2e8f0" font-family="Arial, sans-serif" font-size="17" font-weight="700">View Vault</text>
  </g>

  <g filter="url(#soft)">
    <rect x="650" y="200" width="310" height="250" rx="20" fill="#0b1220" stroke="#263241"/>
    <text x="684" y="246" fill="#e2e8f0" font-family="Arial, sans-serif" font-size="22" font-weight="800">Models</text>
    <rect x="684" y="274" width="230" height="16" rx="8" fill="#1f2937"/>
    <rect x="684" y="274" width="166" height="16" rx="8" fill="#22d3ee"/>
    <text x="684" y="332" fill="#94a3b8" font-family="Arial, sans-serif" font-size="16">Rashid AI v3</text>
    <text x="684" y="370" fill="#94a3b8" font-family="Arial, sans-serif" font-size="16">Game Engine Core</text>
    <text x="684" y="408" fill="#94a3b8" font-family="Arial, sans-serif" font-size="16">Backend System</text>
  </g>

  <g filter="url(#soft)">
    <rect x="996" y="200" width="356" height="250" rx="20" fill="#0b1220" stroke="#263241"/>
    <text x="1030" y="246" fill="#e2e8f0" font-family="Arial, sans-serif" font-size="22" font-weight="800">Vault Activity</text>
    <circle cx="1060" cy="312" r="30" fill="#172554"/>
    <circle cx="1150" cy="312" r="30" fill="#064e3b"/>
    <circle cx="1240" cy="312" r="30" fill="#3b0764"/>
    <text x="1030" y="380" fill="#94a3b8" font-family="Arial, sans-serif" font-size="16">Prompts, code, media, docs</text>
    <text x="1030" y="414" fill="#22d3ee" font-family="Arial, sans-serif" font-size="15" font-weight="700">Admin edit controls hidden from visitors</text>
  </g>

  <g filter="url(#soft)">
    <rect x="88" y="572" width="1264" height="266" rx="22" fill="#0b1220" stroke="#263241"/>
    <text x="124" y="622" fill="#f8fafc" font-family="Arial, sans-serif" font-size="26" font-weight="800">Project Matrix</text>
    <g>
      <rect x="124" y="660" width="260" height="120" rx="16" fill="#111827" stroke="#334155"/>
      <rect x="416" y="660" width="260" height="120" rx="16" fill="#111827" stroke="#334155"/>
      <rect x="708" y="660" width="260" height="120" rx="16" fill="#111827" stroke="#334155"/>
      <rect x="1000" y="660" width="260" height="120" rx="16" fill="#111827" stroke="#334155"/>
    </g>
    <text x="154" y="718" fill="#e2e8f0" font-family="Arial" font-size="20" font-weight="700">Games</text>
    <text x="446" y="718" fill="#e2e8f0" font-family="Arial" font-size="20" font-weight="700">Apps</text>
    <text x="738" y="718" fill="#e2e8f0" font-family="Arial" font-size="20" font-weight="700">AI Tools</text>
    <text x="1030" y="718" fill="#e2e8f0" font-family="Arial" font-size="20" font-weight="700">Learning</text>
  </g>
</svg>
