<svg xmlns="http://www.w3.org/2000/svg" width="1440" height="960" viewBox="0 0 1440 960" role="img" aria-labelledby="title desc">
  <title id="title">Rashid Neural Vault redesign concept</title>
  <desc id="desc">Editorial AI archive concept with a luminous vault core, model cards, and organized content streams.</desc>
  <defs>
    <radialGradient id="core" cx="50%" cy="42%" r="55%">
      <stop offset="0" stop-color="#f8fafc"/>
      <stop offset=".18" stop-color="#67e8f9"/>
      <stop offset=".45" stop-color="#2563eb"/>
      <stop offset="1" stop-color="#050816"/>
    </radialGradient>
    <linearGradient id="panel" x1="0" x2="1" y1="0" y2="1">
      <stop offset="0" stop-color="#101827" stop-opacity=".92"/>
      <stop offset="1" stop-color="#050816" stop-opacity=".96"/>
    </linearGradient>
    <filter id="glow">
      <feGaussianBlur stdDeviation="9" result="blur"/>
      <feMerge>
        <feMergeNode in="blur"/>
        <feMergeNode in="SourceGraphic"/>
      </feMerge>
    </filter>
  </defs>
  <rect width="1440" height="960" fill="#050816"/>
  <circle cx="720" cy="380" r="330" fill="url(#core)" opacity=".48"/>
  <g stroke="#67e8f9" opacity=".28" fill="none">
    <circle cx="720" cy="380" r="170"/>
    <circle cx="720" cy="380" r="240"/>
    <path d="M420 280 C560 160 870 180 1010 310"/>
    <path d="M360 490 C560 610 910 610 1080 440"/>
    <path d="M720 140 V650"/>
    <path d="M480 230 L970 540"/>
    <path d="M970 230 L480 540"/>
  </g>
  <text x="90" y="100" fill="#f8fafc" font-family="Arial" font-size="34" font-weight="800">Rashid</text>
  <text x="90" y="136" fill="#94a3b8" font-family="Arial" font-size="18">Neural vault identity</text>
  <text x="90" y="760" fill="#f8fafc" font-family="Arial" font-size="54" font-weight="900">Knowledge becomes interface.</text>
  <text x="94" y="808" fill="#94a3b8" font-family="Arial" font-size="21">A redesign where the Vault is the heart: prompts, code, models, media, and admin controls orbit one clear system.</text>

  <g filter="url(#glow)">
    <rect x="585" y="245" width="270" height="270" rx="52" fill="#07111f" stroke="#67e8f9" stroke-width="2"/>
    <path d="M650 372 C650 315 790 315 790 372 V430 H650Z" fill="none" stroke="#67e8f9" stroke-width="14" stroke-linecap="round"/>
    <rect x="624" y="385" width="192" height="110" rx="24" fill="#0f172a" stroke="#e0f2fe"/>
    <circle cx="720" cy="438" r="18" fill="#67e8f9"/>
  </g>

  <g>
    <rect x="92" y="205" width="310" height="360" rx="26" fill="url(#panel)" stroke="#1e3a8a"/>
    <text x="128" y="260" fill="#e2e8f0" font-family="Arial" font-size="25" font-weight="800">Rashid Models</text>
    <rect x="128" y="306" width="230" height="58" rx="14" fill="#0f172a" stroke="#2563eb"/>
    <rect x="128" y="388" width="230" height="58" rx="14" fill="#0f172a" stroke="#2563eb"/>
    <rect x="128" y="470" width="230" height="58" rx="14" fill="#0f172a" stroke="#2563eb"/>
    <text x="152" y="342" fill="#bae6fd" font-family="Arial" font-size="17">AI Assistant</text>
    <text x="152" y="424" fill="#bae6fd" font-family="Arial" font-size="17">Game Core</text>
    <text x="152" y="506" fill="#bae6fd" font-family="Arial" font-size="17">Backend Brain</text>
  </g>

  <g>
    <rect x="1038" y="205" width="310" height="360" rx="26" fill="url(#panel)" stroke="#1e3a8a"/>
    <text x="1074" y="260" fill="#e2e8f0" font-family="Arial" font-size="25" font-weight="800">The Vault</text>
    <g fill="#0f172a" stroke="#2563eb">
      <rect x="1074" y="306" width="96" height="96" rx="18"/>
      <rect x="1200" y="306" width="96" height="96" rx="18"/>
      <rect x="1074" y="432" width="96" height="96" rx="18"/>
      <rect x="1200" y="432" width="96" height="96" rx="18"/>
    </g>
    <g fill="#bae6fd" font-family="Arial" font-size="14" text-anchor="middle">
      <text x="1122" y="359">Prompts</text>
      <text x="1248" y="359">Code</text>
      <text x="1122" y="485">Media</text>
      <text x="1248" y="485">Docs</text>
    </g>
  </g>
</svg>
