<svg xmlns="http://www.w3.org/2000/svg" width="1440" height="960" viewBox="0 0 1440 960" role="img" aria-labelledby="title desc">
  <title id="title">Rashid Studio OS redesign concept</title>
  <desc id="desc">Clean studio operating system concept with bright surfaces, dark navigation, structured cards, and product-grade admin controls.</desc>
  <defs>
    <linearGradient id="hero" x1="0" x2="1" y1="0" y2="1">
      <stop offset="0" stop-color="#f8fafc"/>
      <stop offset=".5" stop-color="#e0f2fe"/>
      <stop offset="1" stop-color="#dcfce7"/>
    </linearGradient>
    <filter id="shadow">
      <feDropShadow dx="0" dy="22" stdDeviation="24" flood-color="#0f172a" flood-opacity=".14"/>
    </filter>
  </defs>
  <rect width="1440" height="960" fill="#f8fafc"/>
  <rect x="40" y="40" width="1360" height="880" rx="34" fill="url(#hero)"/>
  <rect x="88" y="82" width="1264" height="78" rx="22" fill="#0f172a"/>
  <text x="126" y="132" fill="#fff" font-family="Arial" font-size="29" font-weight="900">Rashid</text>
  <g fill="#cbd5e1" font-family="Arial" font-size="15">
    <text x="790" y="128">Models</text>
    <text x="880" y="128">Vault</text>
    <text x="954" y="128">Projects</text>
    <text x="1054" y="128">Learning</text>
  </g>
  <rect x="1192" y="101" width="116" height="38" rx="19" fill="#22c55e"/>
  <text x="1228" y="126" fill="#052e16" font-family="Arial" font-size="15" font-weight="800">Admin</text>

  <text x="114" y="278" fill="#0f172a" font-family="Arial" font-size="68" font-weight="900">Build, store, launch.</text>
  <text x="118" y="326" fill="#475569" font-family="Arial" font-size="22">A calmer redesign for a creator platform: clear sections, fast scanning, fewer effects, stronger mobile behavior.</text>
  <rect x="118" y="378" width="168" height="52" rx="14" fill="#0f172a"/>
  <text x="154" y="411" fill="#f8fafc" font-family="Arial" font-size="17" font-weight="800">Explore</text>
  <rect x="306" y="378" width="168" height="52" rx="14" fill="#fff" stroke="#cbd5e1"/>
  <text x="346" y="411" fill="#0f172a" font-family="Arial" font-size="17" font-weight="800">Open Vault</text>

  <g filter="url(#shadow)">
    <rect x="820" y="220" width="420" height="300" rx="30" fill="#fff"/>
    <rect x="860" y="260" width="340" height="42" rx="12" fill="#e2e8f0"/>
    <rect x="860" y="330" width="150" height="120" rx="18" fill="#0ea5e9"/>
    <rect x="1038" y="330" width="162" height="120" rx="18" fill="#22c55e"/>
    <text x="860" y="492" fill="#64748b" font-family="Arial" font-size="16">Dashboard snapshot</text>
  </g>

  <g filter="url(#shadow)">
    <rect x="116" y="570" width="370" height="210" rx="26" fill="#fff"/>
    <text x="150" y="624" fill="#0f172a" font-family="Arial" font-size="25" font-weight="900">Models</text>
    <text x="150" y="662" fill="#64748b" font-family="Arial" font-size="17">Rashid AI, game core, backend.</text>
    <rect x="150" y="702" width="112" height="38" rx="10" fill="#e0f2fe"/>
    <text x="177" y="727" fill="#0369a1" font-family="Arial" font-size="14" font-weight="800">Add</text>
  </g>
  <g filter="url(#shadow)">
    <rect x="536" y="570" width="370" height="210" rx="26" fill="#fff"/>
    <text x="570" y="624" fill="#0f172a" font-family="Arial" font-size="25" font-weight="900">Vault</text>
    <text x="570" y="662" fill="#64748b" font-family="Arial" font-size="17">Prompts, code, docs, media.</text>
    <rect x="570" y="702" width="112" height="38" rx="10" fill="#dcfce7"/>
    <text x="598" y="727" fill="#166534" font-family="Arial" font-size="14" font-weight="800">Add</text>
  </g>
  <g filter="url(#shadow)">
    <rect x="956" y="570" width="270" height="210" rx="26" fill="#0f172a"/>
    <text x="990" y="624" fill="#fff" font-family="Arial" font-size="25" font-weight="900">Mobile first</text>
    <text x="990" y="662" fill="#cbd5e1" font-family="Arial" font-size="17">Less blur, faster cards, bigger touch targets.</text>
  </g>
</svg>
